<svg id="Layer_1" data-name="Layer 1" xmlns="http://www.w3.org/2000/svg" viewBox="0 0 121 34"><defs><style>.cls-1{fill:#fff;}</style></defs><title>inspector_logo</title><path class="cls-1" d="M30.25,9.83h2.23L30.57,23H28.34Z"/><path class="cls-1" d="M35.36,13h2.17l-.28,1.92a4.46,4.46,0,0,1,4-2c2.34,0,3.53,1.48,3.19,3.87L43.52,23H41.35l.81-5.64A1.91,1.91,0,0,0,40.1,15a3.37,3.37,0,0,0-3.25,2.74L36.08,23H33.91Z"/><path class="cls-1" d="M46.4,20.17a4.78,4.78,0,0,0,3.17,1.25c.93,0,1.7-.33,1.81-1.08.31-2.06-5.17-.91-4.62-4.53.3-2,2.19-2.91,4.11-2.91a5.7,5.7,0,0,1,3.38,1l-1,1.61a5.18,5.18,0,0,0-2.75-.89c-.85,0-1.53.28-1.62,1-.27,1.85,5.22.85,4.68,4.49-.31,2.06-2.27,3-4.29,3a5.45,5.45,0,0,1-3.83-1.39Z"/><path class="cls-1" d="M56.84,13H59l-.27,1.73a4.62,4.62,0,0,1,3.78-1.81c2.85,0,4.49,2.08,4,5.14a5.53,5.53,0,0,1-5.49,5.05A3.34,3.34,0,0,1,57.8,21.3L57,26.7H54.85Zm4,8.26A3.62,3.62,0,0,0,64.4,18a2.6,2.6,0,0,0-2.6-3.25A3.6,3.6,0,0,0,58.29,18C58,19.92,59.08,21.26,60.87,21.26Z"/><path class="cls-1" d="M73.7,12.92c3.53,0,4.65,2.31,3.85,5.93H70a2.56,2.56,0,0,0,2.75,2.51,4.53,4.53,0,0,0,3-1.17l1,1.23a6.34,6.34,0,0,1-4.4,1.69c-3.1,0-4.83-2.05-4.4-5.07A5.81,5.81,0,0,1,73.7,12.92Zm2.19,4.34a2.19,2.19,0,0,0-2.41-2.6,3.4,3.4,0,0,0-3.32,2.6Z"/><path class="cls-1" d="M84.78,12.92a4.65,4.65,0,0,1,3.93,1.64L87.31,16a3.28,3.28,0,0,0-2.7-1.13A3.54,3.54,0,0,0,81.16,18c-.29,1.9.79,3.21,2.52,3.21A4.31,4.31,0,0,0,86.82,20l1,1.21a6,6,0,0,1-4.55,1.86c-3,0-4.76-2.05-4.32-5.07A5.76,5.76,0,0,1,84.78,12.92Z"/><path class="cls-1" d="M90.23,13.38h1.42L92,10.62h2.15l-.39,2.76h3L96.52,15h-3l-.68,4.81c-.15,1,.19,1.36.87,1.36a4,4,0,0,0,1.59-.43l.3,1.66a5.48,5.48,0,0,1-2.59.73c-1.51,0-2.68-.87-2.37-2.92L91.4,15H90Z"/><path class="cls-1" d="M103.18,12.92c3.09,0,4.92,2.06,4.49,5.1a5.85,5.85,0,0,1-6,5.09c-3.11,0-4.94-2.07-4.51-5.09A5.85,5.85,0,0,1,103.18,12.92ZM102,21.3A3.61,3.61,0,0,0,105.5,18c.28-1.93-.79-3.25-2.59-3.25A3.61,3.61,0,0,0,99.36,18C99.08,20,100.16,21.3,102,21.3Z"/><path class="cls-1" d="M110.67,13h2.17l-.31,2a4.32,4.32,0,0,1,3.78-2.08L116,15a3.59,3.59,0,0,0-3.87,2.79L111.38,23h-2.17Z"/><path class="cls-1" d="M14.21,7.3a9.53,9.53,0,1,0,9.53,9.52A9.53,9.53,0,0,0,14.21,7.3Zm0,17.84a8.32,8.32,0,1,1,8.32-8.32A8.32,8.32,0,0,1,14.21,25.14Z"/><circle class="cls-1" cx="14.21" cy="16.82" r="1.66"/><path class="cls-1" d="M14.21,12.14a4.63,4.63,0,0,1,1.94.42l.9-.9a5.8,5.8,0,0,0-2.84-.73,5.89,5.89,0,0,0-5.89,5.89,5.78,5.78,0,0,0,.24,1.68,1.14,1.14,0,0,0-.23.68,1.11,1.11,0,0,0,2.21,0,1.12,1.12,0,0,0-.83-1.07,4.57,4.57,0,0,1-.18-1.29A4.69,4.69,0,0,1,14.21,12.14Z"/><path class="cls-1" d="M20.13,14.57a1.1,1.1,0,1,0-1.38,1.06,4.7,4.7,0,0,1-6.37,5.51l-.9.9a5.9,5.9,0,0,0,8.42-6.79A1.07,1.07,0,0,0,20.13,14.57Z"/></svg>