<svg id="Layer_1" data-name="Layer 1" xmlns="http://www.w3.org/2000/svg" viewBox="0 0 351 352"><title>1</title><path d="M175.5,10.25C84.11,10.25,9.75,84.61,9.75,176S84.11,341.75,175.5,341.75,341.25,267.39,341.25,176,266.89,10.25,175.5,10.25Zm0,310.45C95.71,320.7,30.8,255.79,30.8,176S95.71,31.3,175.5,31.3,320.2,96.21,320.2,176,255.29,320.7,175.5,320.7Z"/><circle cx="175.5" cy="176" r="28.94"/><path d="M175.5,94.44a81,81,0,0,1,33.7,7.32l15.67-15.67A102.58,102.58,0,0,0,77.15,205.25a19.17,19.17,0,1,0,20-6.81A80.69,80.69,0,0,1,93.94,176,81.66,81.66,0,0,1,175.5,94.44Z"/><path d="M278.53,136.74a19.18,19.18,0,1,0-24.16,18.5,81.55,81.55,0,0,1-110.76,95.82l-15.76,15.77a102.56,102.56,0,0,0,146.53-118.2A19.07,19.07,0,0,0,278.53,136.74Z"/></svg>